<?xml version="1.0" encoding="utf-8"?>
<!-- Generator: Adobe Illustrator 19.0.1, SVG Export Plug-In . SVG Version: 6.00 Build 0)  -->
<svg version="1.1" xmlns="http://www.w3.org/2000/svg" xmlns:xlink="http://www.w3.org/1999/xlink" x="0px" y="0px"
	 viewBox="0 0 163 163" style="enable-background:new 0 0 163 163;" xml:space="preserve">
<style type="text/css">
	.st0{fill:#5E5E5E;}
	.st1{fill:none;stroke:#FFFFFF;stroke-width:3;stroke-miterlimit:10;}
	.st2{fill:#BBBDBF;}
	.st3{fill:#FFFFFF;}
	.st4{fill:none;stroke:#6D6E71;stroke-width:3;stroke-miterlimit:10;}
	.st5{fill:#6D6E71;}
	.st6{fill:#414042;}
</style>
<g id="Layer_2">
</g>
<g id="Layer_3">
</g>
<g id="Layer_1">
	<g>
		<polygon class="st1" points="161.5,161.5 1.5,161.5 1.5,1.5 81.8,1.5 161.5,1.5 		"/>
		<g>
			<g>
				<path class="st2" d="M42,138.5h-2.2v4.6h-5.9v-17.8h8.6c4.8,0,7.6,2.3,7.6,6.4c0,2.6-1,4.5-2.8,5.6l3.5,5.8h-6.7L42,138.5z
					 M42.5,134.1c1.3,0,2-0.8,2-2.2c0-1.3-0.7-2.1-2-2.1h-2.7v4.2H42.5z"/>
				<path class="st2" d="M52.3,143.2v-17.8h5.9v17.8H52.3z"/>
				<path class="st2" d="M77,128.4l-3.4,4c-1.1-1.4-2.7-2.4-4-2.4c-2.1,0-3.7,1.7-3.7,4.1c0,2.4,1.6,4.1,3.7,4.1c1.3,0,2.9-0.8,4-2
					l3.4,3.6c-2,2.2-5,3.6-7.8,3.6c-5.5,0-9.4-3.9-9.4-9.2c0-5.2,4.1-9.1,9.7-9.1C72.2,125.2,75.2,126.4,77,128.4z"/>
				<path class="st2" d="M84.1,129.8v2.2h8.3v4.5h-8.3v2.2h9.4v4.5H78.2v-17.8h15.1v4.5H84.1z"/>
			</g>
			<g>
				<path class="st3" d="M129.2,127.4l-2.1,4.4c-1.8-1-4.5-2-6-2c-0.6,0-1.1,0.2-1.1,0.7c0,2.2,9,0.8,9,7.1c0,3.9-3.4,5.6-7.3,5.6
					c-3,0-6.4-1-8.7-2.8l2.1-4.3c1.8,1.5,4.9,2.7,6.6,2.7c0.8,0,1.4-0.3,1.4-0.9c0-2.3-9-0.8-9-6.9c0-3.5,2.9-5.7,7.4-5.7
					C124.3,125.3,127.2,126.2,129.2,127.4z"/>
				<path class="st3" d="M112.4,128.2l-3.4,4c-1.1-1.4-2.7-2.4-4-2.4c-2.1,0-3.7,1.7-3.7,4.1c0,2.4,1.6,4.1,3.7,4.1
					c1.3,0,2.9-0.8,4-2l3.4,3.6c-2,2.2-5,3.6-7.8,3.6c-5.5,0-9.4-3.9-9.4-9.2c0-5.2,4.1-9.1,9.7-9.1
					C107.6,124.9,110.6,126.2,112.4,128.2z"/>
			</g>
		</g>
		<g>
			<polygon class="st3" points="101.5,100.5 81.5,88.9 101.5,77.4 			"/>
			<polygon class="st3" points="81.5,42.8 61.5,31.3 81.5,19.7 			"/>
			<polygon class="st3" points="41.5,42.8 41.5,65.9 41.5,88.9 61.5,77.4 61.5,54.3 61.5,31.3 			"/>
			<polygon class="st2" points="81.5,88.9 61.5,77.4 41.5,88.9 61.5,100.5 81.5,112 101.5,100.5 			"/>
			<polygon class="st2" points="101.5,100.5 121.5,88.9 101.5,77.4 			"/>
			<polygon class="st2" points="61.5,54.3 81.5,42.8 61.5,31.3 			"/>
		</g>
	</g>
</g>
</svg>
